# xmcd CD database file
#
# Track frame offsets:
#	150
#	19361
#	40659
#	67151
#	89055
#	111784
#	134065
#	152069
#	174572
#	206777
#	229962
#	245632
#	270119
#
# Disc length: 3879 seconds
#
# Revision: 0
# Processed by: cddbd v1.5.2PL0 Copyright (c) Steve Scherf et al.
# Submitted via: CDex 1.51
#
DISCID=c00f250d
DTITLE=Geoff Eales - Mountains Of Fire
DYEAR=1998
DGENRE=Jazz
TTITLE0=Here, There and Everywhere
TTITLE1=Like Someone In Love
TTITLE2=Autumn Leaves
TTITLE3=Young and Foolish
TTITLE4=Falling In Love Again
TTITLE5=Blues for Shirl
TTITLE6=You Must Believe In Spring
TTITLE7=Have You Met Miss Jones?
TTITLE8=I Fall In Love Too Easily
TTITLE9=Stella By Starlight
TTITLE10=A Child Is Born
TTITLE11=Mountains Of Fire
TTITLE12=Some Other Time
EXTD=YEAR: 1998
EXTT0=
EXTT1=
EXTT2=
EXTT3=
EXTT4=
EXTT5=
EXTT6=
EXTT7=
EXTT8=
EXTT9=
EXTT10=
EXTT11=
EXTT12=
PLAYORDER=
